<svg width="90" height="90" viewBox="0 0 90 90" fill="none" xmlns="http://www.w3.org/2000/svg">
<rect width="90" height="90" rx="20" fill="url(#paint0_linear_23_5)"/>
<g filter="url(#filter0_d_23_5)">
<path d="M66.255 26.35C67.3917 26.57 68.235 26.955 68.785 27.505C69.3717 28.055 69.665 28.6967 69.665 29.43C69.665 30.64 69.3167 31.52 68.62 32.07C67.96 32.62 66.8967 32.84 65.43 32.73C62.13 32.4733 59.545 32.3083 57.675 32.235C55.8417 32.125 53.4217 32.0517 50.415 32.015C49.0583 38.7617 47.8117 45.545 46.675 52.365C46.2717 54.8583 45.85 57.755 45.41 61.055C44.97 64.3183 44.6767 66.9583 44.53 68.975C44.4567 70.0383 44.0167 70.8633 43.21 71.45C42.4033 72 41.4317 72.275 40.295 72.275C39.085 72.275 38.15 71.9817 37.49 71.395C36.83 70.8083 36.5 70.0383 36.5 69.085C36.5 68.205 36.6283 66.7567 36.885 64.74C37.1783 62.6867 37.5083 60.5417 37.875 58.305C38.2783 56.0683 38.59 54.125 38.81 52.475C39.2133 49.6883 39.6717 46.92 40.185 44.17C40.6983 41.42 41.2117 38.8167 41.725 36.36C41.835 35.81 41.9633 35.1867 42.11 34.49C42.2567 33.7567 42.4217 32.95 42.605 32.07C39.0117 32.18 36.1883 32.4733 34.135 32.95C32.0817 33.4267 30.615 34.105 29.735 34.985C28.8917 35.8283 28.47 36.9283 28.47 38.285C28.47 39.5317 28.8367 40.7233 29.57 41.86C29.7167 42.1167 29.79 42.3917 29.79 42.685C29.79 43.3817 29.3683 44.0417 28.525 44.665C27.7183 45.2517 26.875 45.545 25.995 45.545C25.3717 45.545 24.8583 45.3617 24.455 44.995C23.7217 44.3717 23.1167 43.4917 22.64 42.355C22.1633 41.1817 21.925 39.8617 21.925 38.395C21.925 35.2783 22.9333 32.785 24.95 30.915C27.0033 29.0083 30.1017 27.615 34.245 26.735C38.425 25.855 43.7783 25.415 50.305 25.415C54.3383 25.415 57.5467 25.4883 59.93 25.635C62.35 25.7817 64.4583 26.02 66.255 26.35Z" fill="#FFFBFB"/>
</g>
<defs>
<filter id="filter0_d_23_5" x="17.925" y="25.415" width="55.74" height="54.86" filterUnits="userSpaceOnUse" color-interpolation-filters="sRGB">
<feFlood flood-opacity="0" result="BackgroundImageFix"/>
<feColorMatrix in="SourceAlpha" type="matrix" values="0 0 0 0 0 0 0 0 0 0 0 0 0 0 0 0 0 0 127 0" result="hardAlpha"/>
<feOffset dy="4"/>
<feGaussianBlur stdDeviation="2"/>
<feComposite in2="hardAlpha" operator="out"/>
<feColorMatrix type="matrix" values="0 0 0 0 0 0 0 0 0 0 0 0 0 0 0 0 0 0 0.25 0"/>
<feBlend mode="normal" in2="BackgroundImageFix" result="effect1_dropShadow_23_5"/>
<feBlend mode="normal" in="SourceGraphic" in2="effect1_dropShadow_23_5" result="shape"/>
</filter>
<linearGradient id="paint0_linear_23_5" x1="45" y1="0" x2="45" y2="90" gradientUnits="userSpaceOnUse">
<stop stop-color="#18911D"/>
<stop offset="0.845" stop-color="#97E19A"/>
</linearGradient>
</defs>
</svg>
